<?xml version="1.0" encoding="UTF-8" standalone="no"?>
<!DOCTYPE svg PUBLIC "-//W3C//DTD SVG 1.1//EN" "http://www.w3.org/Graphics/SVG/1.1/DTD/svg11.dtd">
<svg width="100%" height="100%" viewBox="0 0 2370 462" version="1.1" xmlns="http://www.w3.org/2000/svg" xmlns:xlink="http://www.w3.org/1999/xlink" xml:space="preserve" xmlns:serif="http://www.serif.com/" style="fill-rule:evenodd;clip-rule:evenodd;stroke-linejoin:round;stroke-miterlimit:2;">
    <g transform="matrix(4.16667,0,0,4.16667,1765.69,291.735)">
        <path d="M0,0.002C0,-7.123 -5.093,-12.92 -12.731,-12.92C-20.301,-12.92 -25.394,-7.184 -25.394,0.002C-25.394,7.128 -20.301,12.864 -12.731,12.864C-5.093,12.864 0,7.067 0,0.002M-42.797,0.001C-42.797,-16.992 -31.257,-30.737 -12.755,-30.737C5.804,-30.737 17.403,-16.992 17.403,0.001C17.403,16.936 5.804,30.739 -12.755,30.739C-31.257,30.739 -42.797,16.936 -42.797,0.001" style="fill:rgb(0,182,201);fill-rule:nonzero;"/>
    </g>
    <g transform="matrix(4.16667,0,0,4.16667,271.044,171.749)">
        <path d="M0,56.661L0,0.001C0,-2.429 4.978,-2.429 10.016,-2.429C14.935,-2.429 19.854,-2.429 19.854,0.001L19.854,56.661C19.854,59.09 14.935,59.09 9.957,59.09C4.978,59.09 0,59.09 0,56.661" style="fill:rgb(14,15,64);fill-rule:nonzero;"/>
    </g>
    <g transform="matrix(0,-4.16667,-4.16667,0,311.465,55.9533)">
        <path d="M-9.952,-9.952C-15.448,-9.952 -19.904,-5.496 -19.904,0.001C-19.904,5.496 -15.448,9.952 -9.952,9.952C-4.455,9.952 0.001,5.496 0.001,0.001C0.001,-5.496 -4.455,-9.952 -9.952,-9.952" style="fill:rgb(14,15,64);fill-rule:nonzero;"/>
    </g>
    <g transform="matrix(4.16667,0,0,4.16667,127.098,41.1179)">
        <path d="M0,90.442C4.978,90.442 10.016,90.442 10.016,88.013L10.016,46.643L21.276,46.643C23.707,46.643 23.707,42.376 23.707,38.109C23.707,33.783 23.707,29.515 21.276,29.515L10.016,29.515L10.016,23.826C10.016,20.625 12.031,17.662 16.061,17.662C19.024,17.662 22.285,18.372 25.069,19.973C25.366,20.091 25.662,20.21 25.959,20.21C27.974,20.21 29.575,16.654 30.759,13.216C31.589,10.727 32.242,8.238 32.242,6.46C32.242,5.275 31.945,4.386 31.293,4.03C26.137,1.067 21.276,0 14.402,0C-0.06,0 -9.898,8.771 -9.898,23.826L-9.898,29.515L-18.213,29.515C-20.644,29.515 -20.703,33.783 -20.703,38.109C-20.703,42.376 -20.644,46.643 -18.213,46.643L-9.898,46.643L-9.898,88.013C-9.898,90.442 -4.979,90.442 0,90.442" style="fill:rgb(14,15,64);fill-rule:nonzero;"/>
    </g>
    <g transform="matrix(4.16667,0,0,4.16667,1256.57,158.911)">
        <path d="M0,62.824C7.349,62.824 13.987,61.639 19.854,58.201C20.447,57.904 20.683,57.075 20.683,56.008C20.683,53.756 19.676,50.437 18.728,47.947C17.364,44.332 15.528,40.657 13.571,40.657C13.276,40.657 13.038,40.717 12.742,40.835C9.423,42.851 5.867,44.036 2.014,44.036C-4.683,44.036 -9.305,38.643 -9.305,31.412C-9.305,24.122 -4.683,18.729 2.014,18.729C5.867,18.729 9.364,19.973 12.564,21.869C12.801,22.048 13.097,22.107 13.335,22.107C15.29,22.107 17.483,18.017 18.906,14.283C19.795,12.031 20.802,9.127 20.802,7.053C20.802,5.867 20.506,4.979 19.735,4.564C13.868,1.185 7.467,0 0,0C-16.062,0 -29.338,12.209 -29.338,31.412C-29.338,50.792 -16.062,62.824 0,62.824" style="fill:rgb(14,15,64);fill-rule:nonzero;"/>
    </g>
    <g transform="matrix(4.16667,0,0,4.16667,1421.57,315.762)">
        <path d="M0,-12.464C0,-17.63 4.033,-21.818 9.009,-21.818C13.984,-21.818 18.017,-17.63 18.017,-12.464L0,-12.464ZM10.076,-37.644C-7.586,-37.644 -19.499,-24.19 -19.499,-6.528C-19.499,11.37 -8.238,25.18 9.838,25.18C18.195,25.18 25.841,23.461 33.19,19.075C33.902,18.72 34.138,17.949 34.138,16.941C34.138,15.104 33.25,12.496 32.242,9.948C31.057,6.748 29.752,3.903 28.034,3.903C27.738,3.903 27.441,3.962 27.145,4.139C22.462,6.984 17.662,8.288 12.15,8.288C6.164,8.288 1.067,4.673 0.238,-0.898L35.147,-0.898C36.924,-0.898 36.983,-3.565 36.983,-6.232C36.983,-23.716 28.626,-37.644 10.076,-37.644" style="fill:rgb(14,15,64);fill-rule:nonzero;"/>
    </g>
    <g transform="matrix(4.16667,0,0,4.16667,775.364,246.126)">
        <path d="M0,21.349C-2.625,23.974 -5.79,25.286 -9.497,25.286C-13.205,25.286 -16.364,23.974 -18.972,21.349C-21.582,18.725 -22.887,15.559 -22.887,11.852C-22.887,8.145 -21.582,4.987 -18.972,2.377C-16.364,-0.232 -13.205,-1.537 -9.497,-1.537C-5.79,-1.537 -2.625,-0.232 0,2.377C2.625,4.987 3.936,8.145 3.936,11.852C3.936,15.559 2.625,18.725 0,21.349M23.406,26.45L23.412,26.406C22.241,26.073 21.881,25.795 21.283,24.715C20.928,24.073 20.732,23.259 20.732,22.256L20.792,-17.908L20.756,-17.913L20.756,-18.53C20.434,-20.197 16.828,-20.202 13.213,-20.202C9.426,-20.202 5.639,-20.202 5.639,-18.284L5.639,-14.947C1.057,-17.656 -3.994,-19.011 -9.513,-19.011C-15.067,-19.011 -20.134,-17.648 -24.717,-14.922C-29.3,-12.195 -32.954,-8.541 -35.68,-3.958C-38.407,0.625 -39.77,5.693 -39.77,11.245C-39.77,16.832 -38.407,21.916 -35.68,26.498C-32.954,31.082 -29.3,34.736 -24.717,37.462C-20.134,40.189 -15.067,41.551 -9.513,41.551C-3.124,41.551 4.775,38.903 10.027,35.223C12.6,38.523 14.958,40.465 18.563,40.975C18.563,40.975 20.448,41.093 21.078,41.093C21.932,41.094 23.175,40.955 23.175,40.955C24.846,40.655 24.87,37.576 24.918,33.962C24.965,30.404 24.99,26.888 23.406,26.45" style="fill:rgb(14,15,64);fill-rule:nonzero;"/>
    </g>
    <g transform="matrix(4.16667,0,0,4.16667,2174.73,315.762)">
        <path d="M0,-12.464C0,-17.63 4.033,-21.818 9.009,-21.818C13.984,-21.818 18.017,-17.63 18.017,-12.464L0,-12.464ZM10.076,-37.644C-7.586,-37.644 -19.499,-24.19 -19.499,-6.528C-19.499,11.37 -8.238,25.18 9.838,25.18C18.195,25.18 25.841,23.461 33.19,19.075C33.902,18.72 34.138,17.949 34.138,16.941C34.138,15.104 33.25,12.496 32.242,9.948C31.057,6.748 29.752,3.903 28.034,3.903C27.738,3.903 27.442,3.962 27.145,4.139C22.462,6.984 17.662,8.288 12.15,8.288C6.164,8.288 1.067,4.673 0.238,-0.898L35.147,-0.898C36.924,-0.898 36.983,-3.565 36.983,-6.232C36.983,-23.716 28.626,-37.644 10.076,-37.644" style="fill:rgb(0,182,201);fill-rule:nonzero;"/>
    </g>
    <g transform="matrix(4.16667,0,0,4.16667,511.846,417.958)">
        <path d="M0,-62.171C-7.409,-62.171 -12.388,-58.023 -16.24,-52.688L-16.24,-59.089C-16.24,-61.46 -20.922,-61.46 -25.604,-61.46C-30.286,-61.46 -34.968,-61.46 -34.968,-59.089L-34.968,-2.429C-34.968,0 -30.049,0 -25.071,0C-20.429,0 -15.843,-0.026 -15.235,-1.994L-15.235,-34.057C-15.235,-38.477 -11.652,-42.06 -7.232,-42.06C-2.812,-42.06 0.771,-38.477 0.771,-34.057L0.771,-2.429C0.771,0 5.809,0 10.728,0C15.766,0 20.503,0 20.503,-2.429L20.503,-37.041C20.503,-52.748 12.387,-62.171 0,-62.171" style="fill:rgb(14,15,64);fill-rule:nonzero;"/>
    </g>
    <g transform="matrix(4.16667,0,0,4.16667,1037.02,417.958)">
        <path d="M0,-62.171C-7.409,-62.171 -12.388,-58.023 -16.24,-52.688L-16.24,-59.089C-16.24,-61.46 -20.922,-61.46 -25.604,-61.46C-30.286,-61.46 -34.968,-61.46 -34.968,-59.089L-34.968,-2.429C-34.968,0 -30.049,0 -25.071,0C-20.429,0 -15.843,-0.026 -15.235,-1.994L-15.235,-34.057C-15.235,-38.477 -11.652,-42.06 -7.232,-42.06C-2.812,-42.06 0.771,-38.477 0.771,-34.057L0.771,-2.429C0.771,0 5.809,0 10.728,0C15.766,0 20.503,0 20.503,-2.429L20.503,-37.041C20.503,-52.748 12.387,-62.171 0,-62.171" style="fill:rgb(14,15,64);fill-rule:nonzero;"/>
    </g>
    <g transform="matrix(4.16667,0,0,4.16667,1995.98,417.958)">
        <path d="M0,-62.171C-7.409,-62.171 -12.388,-58.023 -16.24,-52.688L-16.24,-59.089C-16.24,-61.46 -20.922,-61.46 -25.604,-61.46C-30.286,-61.46 -34.968,-61.46 -34.968,-59.089L-34.968,-2.429C-34.968,0 -30.049,0 -25.071,0C-20.429,0 -15.843,-0.026 -15.235,-1.994L-15.235,-34.057C-15.235,-38.477 -11.652,-42.06 -7.232,-42.06C-2.812,-42.06 0.771,-38.477 0.771,-34.057L0.771,-2.429C0.771,0 5.809,0 10.728,0C15.766,0 20.503,0 20.503,-2.429L20.503,-37.041C20.503,-52.748 12.387,-62.171 0,-62.171" style="fill:rgb(0,182,201);fill-rule:nonzero;"/>
    </g>
</svg>
