<?xml version="1.0" encoding="UTF-8" standalone="no"?>
<svg
   xmlns:dc="http://purl.org/dc/elements/1.1/"
   xmlns:cc="http://creativecommons.org/ns#"
   xmlns:rdf="http://www.w3.org/1999/02/22-rdf-syntax-ns#"
   xmlns:svg="http://www.w3.org/2000/svg"
   xmlns="http://www.w3.org/2000/svg"
   viewBox="0 0 758.29199 212.49467"
   height="212.49467"
   width="758.29199"
   xml:space="preserve"
   id="svg2"
   version="1.1"><metadata
     id="metadata8"><rdf:RDF><cc:Work
         rdf:about=""><dc:format>image/svg+xml</dc:format><dc:type
           rdf:resource="http://purl.org/dc/dcmitype/StillImage" /></cc:Work></rdf:RDF></metadata><defs
     id="defs6"><clipPath
       id="clipPath18"
       clipPathUnits="userSpaceOnUse"><path
         id="path16"
         d="M 0,159.371 H 568.719 V 0 H 0 Z" /></clipPath></defs><g
     transform="matrix(1.3333333,0,0,-1.3333333,0,212.49467)"
     id="g10"><g
       id="g12"><g
         clip-path="url(#clipPath18)"
         id="g14"><g
           transform="translate(213.1072,43.4054)"
           id="g20"><path
             id="path22"
             style="fill:#00b8ca;fill-opacity:1;fill-rule:nonzero;stroke:none"
             d="M 0,0 C 9.034,0 15.85,-5.083 18.014,-13.306 H 7.845 c -1.57,3.243 -4.437,4.866 -7.954,4.866 -5.68,0 -9.574,-4.219 -9.574,-10.926 0,-6.708 3.894,-10.927 9.574,-10.927 3.517,0 6.384,1.624 7.954,4.866 H 18.014 C 15.85,-33.65 9.034,-38.679 0,-38.679 c -11.198,0 -19.098,7.951 -19.098,19.313 C -19.098,-8.005 -11.198,0 0,0" /></g><g
           transform="translate(254.7483,13.0578)"
           id="g24"><path
             id="path26"
             style="fill:#00b8ca;fill-opacity:1;fill-rule:nonzero;stroke:none"
             d="m 0,0 c 6.058,0 10.009,4.383 10.009,11.035 0,6.762 -3.951,11.036 -10.009,11.036 -6.167,0 -10.061,-4.274 -10.061,-11.036 C -10.061,4.383 -6.167,0 0,0 m 0,-8.44 c -10.764,0 -19.529,8.06 -19.529,19.475 0,11.416 8.765,19.421 19.529,19.421 10.821,0 19.421,-8.005 19.421,-19.421 C 19.421,-0.38 10.767,-8.44 0,-8.44" /></g><g
           transform="translate(279.2931,42.971)"
           id="g28"><path
             id="path30"
             style="fill:#00b8ca;fill-opacity:1;fill-rule:nonzero;stroke:none"
             d="M 0,0 H 10.927 L 21.585,-26.291 32.134,0 h 10.873 v -37.973 h -9.252 v 22.772 L 25.264,-37.973 H 17.797 L 9.251,-15.147 V -37.973 H 0 Z" /></g><g
           transform="translate(328.9392,42.971)"
           id="g32"><path
             id="path34"
             style="fill:#00b8ca;fill-opacity:1;fill-rule:nonzero;stroke:none"
             d="M 0,0 H 10.927 L 21.585,-26.291 32.134,0 h 10.873 v -37.973 h -9.252 v 22.772 L 25.264,-37.973 H 17.797 L 9.251,-15.147 V -37.973 H 0 Z" /></g><g
           transform="translate(401.8484,35.5633)"
           id="g36"><path
             id="path38"
             style="fill:#00b8ca;fill-opacity:1;fill-rule:nonzero;stroke:none"
             d="m 0,0 h -14.012 v -7.685 h 12.388 v -7.139 h -12.388 v -8.33 H 0 v -7.411 H -23.263 V 7.408 L 0,7.408 Z" /></g><g
           transform="translate(422.8278,35.2917)"
           id="g40"><path
             id="path42"
             style="fill:#00b8ca;fill-opacity:1;fill-rule:nonzero;stroke:none"
             d="M 0,0 H -5.735 V -9.412 H 0 c 3.462,0 5.083,1.784 5.083,4.758 C 5.083,-1.841 3.462,0 0,0 m 0.54,7.679 c 9.303,0 13.958,-5.355 13.958,-11.953 0,-4.76 -2.599,-9.249 -8.44,-10.981 l 8.763,-15.038 H 4.38 l -7.896,14.334 h -2.219 v -14.334 h -9.251 V 7.679 Z" /></g><g
           transform="translate(460.6293,43.4054)"
           id="g44"><path
             id="path46"
             style="fill:#00b8ca;fill-opacity:1;fill-rule:nonzero;stroke:none"
             d="M 0,0 C 9.034,0 15.85,-5.083 18.014,-13.306 H 7.845 c -1.57,3.243 -4.437,4.866 -7.954,4.866 -5.68,0 -9.574,-4.219 -9.574,-10.926 0,-6.708 3.894,-10.927 9.574,-10.927 3.517,0 6.384,1.624 7.954,4.866 H 18.014 C 15.85,-33.65 9.034,-38.679 0,-38.679 c -11.198,0 -19.098,7.951 -19.098,19.313 C -19.098,-8.005 -11.198,0 0,0" /></g><path
           id="path48"
           style="fill:#00b8ca;fill-opacity:1;fill-rule:nonzero;stroke:none"
           d="m 484.311,42.971 h 9.251 V 4.998 h -9.251 z" /><g
           transform="translate(516.8169,32.7501)"
           id="g50"><path
             id="path52"
             style="fill:#00b8ca;fill-opacity:1;fill-rule:nonzero;stroke:none"
             d="M 0,0 -4.652,-13.903 H 4.706 Z M 7.087,-21.045 H -7.087 l -2.27,-6.707 h -9.684 l 13.74,37.973 H 5.409 L 19.152,-27.752 H 9.36 Z" /></g><g
           transform="translate(549.3721,42.971)"
           id="g54"><path
             id="path56"
             style="fill:#00b8ca;fill-opacity:1;fill-rule:nonzero;stroke:none"
             d="m 0,0 v -30.834 h 12.116 v -7.139 H -9.251 l 0,37.973 z" /></g><g
           transform="translate(425.2768,91.0175)"
           id="g58"><path
             id="path60"
             style="fill:#00b8ca;fill-opacity:1;fill-rule:nonzero;stroke:none"
             d="M 0,0 C 0,7.202 -5.148,13.062 -12.869,13.062 -20.521,13.062 -25.67,7.264 -25.67,0 c 0,-7.203 5.149,-13.002 12.801,-13.002 C -5.148,-13.002 0,-7.142 0,0 m -43.261,0.001 c 0,17.177 11.665,31.071 30.367,31.071 18.761,0 30.486,-13.894 30.486,-31.071 0,-17.118 -11.725,-31.072 -30.486,-31.072 -18.702,0 -30.367,13.954 -30.367,31.072" /></g><g
           transform="translate(62.6736,62.8533)"
           id="g62"><path
             id="path64"
             style="fill:#2e2e4c;fill-opacity:1;fill-rule:nonzero;stroke:none"
             d="m 0,0 v 57.274 c 0,2.457 5.032,2.457 10.124,2.457 4.973,0 9.945,0 9.945,-2.457 L 20.069,0 c 0,-2.456 -4.972,-2.456 -10.004,-2.456 C 5.032,-2.456 0,-2.456 0,0" /></g><g
           transform="translate(82.5391,138.1613)"
           id="g66"><path
             id="path68"
             style="fill:#2e2e4c;fill-opacity:1;fill-rule:nonzero;stroke:none"
             d="m 0,0 c 0,-5.556 -4.504,-10.059 -10.059,-10.059 -5.556,0 -10.06,4.503 -10.06,10.059 0,5.556 4.504,10.059 10.06,10.059 C -4.504,10.059 0,5.556 0,0" /></g><g
           transform="translate(27.752,60.3974)"
           id="g70"><path
             id="path72"
             style="fill:#2e2e4c;fill-opacity:1;fill-rule:nonzero;stroke:none"
             d="m 0,0 c 5.032,0 10.124,0 10.124,2.456 v 41.818 h 11.383 c 2.457,0 2.457,4.313 2.457,8.627 0,4.373 0,8.686 -2.457,8.686 H 10.124 v 5.752 c 0,3.235 2.038,6.23 6.111,6.23 2.996,0 6.291,-0.718 9.106,-2.336 0.3,-0.12 0.6,-0.24 0.899,-0.24 2.038,0 3.655,3.595 4.853,7.07 0.838,2.516 1.498,5.032 1.498,6.829 0,1.199 -0.3,2.097 -0.958,2.457 -5.213,2.995 -10.126,4.074 -17.075,4.074 -14.619,0 -24.564,-8.867 -24.564,-24.084 v -5.752 h -8.404 c -2.458,0 -2.517,-4.313 -2.517,-8.686 0,-4.314 0.059,-8.627 2.517,-8.627 h 8.404 V 2.456 C -10.006,0 -5.033,0 0,0" /></g><g
           transform="translate(301.763,59.7379)"
           id="g74"><path
             id="path76"
             style="fill:#2e2e4c;fill-opacity:1;fill-rule:nonzero;stroke:none"
             d="m 0,0 c 7.428,0 14.138,1.198 20.069,4.673 0.6,0.3 0.838,1.138 0.838,2.217 0,2.276 -1.017,5.631 -1.976,8.148 -1.378,3.654 -3.235,7.369 -5.213,7.369 -0.298,0 -0.538,-0.06 -0.838,-0.18 C 9.525,20.19 5.931,18.992 2.036,18.992 c -6.769,0 -11.442,5.451 -11.442,12.761 0,7.369 4.673,12.82 11.442,12.82 3.895,0 7.429,-1.257 10.664,-3.174 0.239,-0.181 0.539,-0.241 0.779,-0.241 1.977,0 4.194,4.134 5.632,7.909 0.899,2.276 1.917,5.212 1.917,7.309 0,1.198 -0.3,2.096 -1.079,2.516 C 14.018,62.307 7.548,63.505 0,63.505 -16.236,63.505 -29.656,51.164 -29.656,31.753 -29.656,12.162 -16.236,0 0,0" /></g><g
           transform="translate(341.7937,97.7899)"
           id="g78"><path
             id="path80"
             style="fill:#2e2e4c;fill-opacity:1;fill-rule:nonzero;stroke:none"
             d="m 0,0 c 0,5.222 4.077,9.456 9.106,9.456 5.03,0 9.107,-4.234 9.107,-9.456 z M 10.185,25.453 C -7.669,25.453 -19.71,11.854 -19.71,-6 c 0,-18.093 11.383,-32.052 29.655,-32.052 8.447,0 16.177,1.738 23.605,6.171 0.719,0.359 0.958,1.138 0.958,2.157 0,1.857 -0.898,4.493 -1.917,7.069 -1.197,3.235 -2.516,6.111 -4.253,6.111 -0.299,0 -0.599,-0.06 -0.899,-0.239 -4.733,-2.876 -9.585,-4.194 -15.157,-4.194 -6.051,0 -11.203,3.654 -12.042,9.286 h 35.288 c 1.797,0 1.856,2.696 1.856,5.392 0,17.673 -8.448,31.752 -27.199,31.752" /></g><g
           transform="translate(185.0221,80.504)"
           id="g82"><path
             id="path84"
             style="fill:#2e2e4c;fill-opacity:1;fill-rule:nonzero;stroke:none"
             d="m 0,0 c -2.653,-2.653 -5.853,-3.98 -9.6,-3.98 -3.748,0 -6.941,1.327 -9.578,3.98 -2.638,2.652 -3.957,5.853 -3.957,9.6 0,3.747 1.319,6.939 3.957,9.578 2.637,2.637 5.83,3.956 9.578,3.956 3.747,0 6.947,-1.319 9.6,-3.956 C 2.653,16.539 3.978,13.347 3.978,9.6 3.978,5.853 2.653,2.652 0,0 m 23.66,-5.156 0.006,0.044 c -1.184,0.337 -1.547,0.618 -2.152,1.71 -0.36,0.649 -0.558,1.471 -0.558,2.485 l 0.062,40.599 -0.037,0.005 v 0.624 c -0.325,1.686 -3.971,1.69 -7.624,1.69 -3.829,0 -7.657,0 -7.657,-1.938 v -3.374 c -4.632,2.739 -9.738,4.108 -15.316,4.108 -5.615,0 -10.736,-1.378 -15.369,-4.133 -4.633,-2.756 -8.326,-6.45 -11.082,-11.082 -2.756,-4.633 -4.134,-9.756 -4.134,-15.368 0,-5.648 1.378,-10.787 4.134,-15.419 2.756,-4.633 6.449,-8.327 11.082,-11.083 4.633,-2.756 9.754,-4.133 15.369,-4.133 6.458,0 14.442,2.677 19.751,6.396 2.601,-3.335 4.985,-5.298 8.629,-5.813 0,0 1.906,-0.12 2.542,-0.12 0.864,-0.001 2.12,0.14 2.12,0.14 1.689,0.303 1.714,3.415 1.762,7.068 0.047,3.597 0.073,7.151 -1.528,7.594" /></g><g
           transform="translate(524.5101,97.7899)"
           id="g86"><path
             id="path88"
             style="fill:#00b8ca;fill-opacity:1;fill-rule:nonzero;stroke:none"
             d="m 0,0 c 0,5.222 4.077,9.456 9.106,9.456 5.03,0 9.107,-4.234 9.107,-9.456 z M 10.185,25.453 C -7.669,25.453 -19.71,11.854 -19.71,-6 c 0,-18.093 11.383,-32.052 29.655,-32.052 8.447,0 16.177,1.738 23.605,6.171 0.719,0.359 0.958,1.138 0.958,2.157 0,1.857 -0.897,4.493 -1.917,7.069 -1.197,3.235 -2.516,6.111 -4.253,6.111 -0.299,0 -0.599,-0.06 -0.899,-0.239 -4.733,-2.876 -9.585,-4.194 -15.157,-4.194 -6.051,0 -11.203,3.654 -12.042,9.286 h 35.288 c 1.797,0 1.856,2.696 1.856,5.392 0,17.673 -8.447,31.752 -27.199,31.752" /></g><g
           transform="translate(121.0924,123.2428)"
           id="g90"><path
             id="path92"
             style="fill:#2e2e4c;fill-opacity:1;fill-rule:nonzero;stroke:none"
             d="m 0,0 c -7.489,0 -12.522,-4.193 -16.416,-9.586 v 6.471 c 0,2.396 -4.733,2.396 -9.465,2.396 -4.734,0 -9.466,0 -9.466,-2.396 V -60.39 c 0,-2.455 4.973,-2.455 10.004,-2.455 4.693,0 9.329,0.026 9.943,2.016 v 32.41 c 0,4.468 3.622,8.09 8.089,8.09 4.468,0 8.09,-3.622 8.09,-8.09 v -7.837 -24.134 c 0,-2.455 5.093,-2.455 10.065,-2.455 5.092,0 9.881,0 9.881,2.455 v 34.988 C 20.725,-9.526 12.521,0 0,0" /></g><g
           transform="translate(248.5011,123.2428)"
           id="g94"><path
             id="path96"
             style="fill:#2e2e4c;fill-opacity:1;fill-rule:nonzero;stroke:none"
             d="m 0,0 c -7.489,0 -12.522,-4.193 -16.416,-9.586 v 6.471 c 0,2.396 -4.733,2.396 -9.465,2.396 -4.734,0 -9.466,0 -9.466,-2.396 V -60.39 c 0,-2.455 4.973,-2.455 10.004,-2.455 4.693,0 9.329,0.026 9.943,2.016 v 32.41 c 0,4.468 3.622,8.09 8.089,8.09 4.468,0 8.09,-3.622 8.09,-8.09 v -7.837 -24.134 c 0,-2.455 5.093,-2.455 10.065,-2.455 5.093,0 9.881,0 9.881,2.455 v 34.988 C 20.725,-9.526 12.521,0 0,0" /></g><g
           transform="translate(481.1448,123.2428)"
           id="g98"><path
             id="path100"
             style="fill:#00b8ca;fill-opacity:1;fill-rule:nonzero;stroke:none"
             d="m 0,0 c -7.489,0 -12.522,-4.193 -16.416,-9.586 v 6.471 c 0,2.396 -4.733,2.396 -9.465,2.396 -4.734,0 -9.466,0 -9.466,-2.396 V -60.39 c 0,-2.455 4.973,-2.455 10.004,-2.455 4.693,0 9.329,0.026 9.943,2.016 v 32.41 c 0,4.468 3.622,8.09 8.089,8.09 4.468,0 8.09,-3.622 8.09,-8.09 v -7.837 -24.134 c 0,-2.455 5.093,-2.455 10.065,-2.455 5.092,0 9.881,0 9.881,2.455 v 34.988 C 20.725,-9.526 12.521,0 0,0" /></g></g></g></g></svg>